# xmcd
#
# Track frame offsets:
#	150
#	26632
#	47911
#	69553
#	87237
#	137839
#	162112
#	188630
#	210075
#	249904
#	278136
#
# Disc length: 4011 seconds
#
# Revision: 0
# Processed by: cddbd v1.5.1PL2 Copyright (c) Steve Scherf et al.
# Submitted via: EasyCDDAExtractor 9.1.0.1
#
DISCID=8f0fa90b
DTITLE=Jesus Project - Tczew Worship Night
DYEAR=2003
DGENRE=
TTITLE0=Irish Song
TTITLE1=Chwalmy Go
TTITLE2=Ty, Bo Ty
TTITLE3=Jezu
TTITLE4=Ty Niezmieniasz Sie
TTITLE5=Psalm
TTITLE6=Dzien Za Dniem
TTITLE7=Spojrz
TTITLE8=Gdy Muzyki Dzwiek
TTITLE9=Powietrzem Moim jest
TTITLE10=Swiety
EXTD=
EXTT0=
EXTT1=
EXTT2=
EXTT3=
EXTT4=
EXTT5=
EXTT6=
EXTT7=
EXTT8=
EXTT9=
EXTT10=
PLAYORDER=
